# xmcd CD database file
#
# Track frame offsets:
#	150
#	14022
#	26882
#	40945
#	49825
#	65102
#	77585
#	90002
#	104457
#	119335
#	129732
#	145385
#	160585
#	179462
#	206112
#	225690
#	249855
#	265907
#	280242
#	302167
#
# Disc length: 4259 seconds
#
# Revision: 0
# Processed by: cddbd v1.5.2PL0 Copyright (c) Steve Scherf et al.
# Submitted via: CDex 1.51
#
DISCID=1d10a114
DTITLE=Various Artist - Dutch Jazz Masters - Dixieland
DYEAR=1999
DGENRE=Jazz
TTITLE0=St. Louis Blues - Louis de Vries and his Rhythm Boys
TTITLE1=Pooj's mistake - Swing Papa's
TTITLE2=I've got what it takes - The Down Town Jazz Band
TTITLE3=When my dreamboat comes home - Dixie Dancers
TTITLE4=Some of these days - Fats Vennessee and his Jazzliners
TTITLE5=Jazz me blues - The New Orleans Syncopators
TTITLE6=At the jazzband ball - The Dutch Swing College Band
TTITLE7=As long as I live - Ted Easton Combo
TTITLE8=Melancholy Blues - Rivertown Dixieland Jazz Band
TTITLE9=Miss Annabelle Lee - The Dixieland Pipers
TTITLE10=Rhythm King - Dixie Disciples
TTITLE11=Shout'em aunt Tilly - Magnolia Jazz Group '65
TTITLE12=I'm confessin' (that I love you) - The Storktown Dixie Kids
TTITLE13=Struttin' with some barbecue - The Four City Seven Plus One
TTITLE14=Blues for George - The Animal Crackers
TTITLE15=After you've gone - The Swing Society
TTITLE16=I'm looking over a four leave clover - Jazz-O-Matic Four
TTITLE17=Black Bottom Stomp - The Dutch Swing College Band
TTITLE18=Tears - The Downtown Jazz Band
TTITLE19=Everybody loves my baby - Riverboat Jazzmen
EXTD=YEAR: 1999
EXTT0=
EXTT1=
EXTT2=
EXTT3=
EXTT4=
EXTT5=
EXTT6=
EXTT7=
EXTT8=
EXTT9=
EXTT10=
EXTT11=
EXTT12=
EXTT13=
EXTT14=
EXTT15=
EXTT16=
EXTT17=
EXTT18=
EXTT19=
PLAYORDER=
